<?xml version="1.0" standalone="no"?>
<!DOCTYPE svg PUBLIC "-//W3C//DTD SVG 20010904//EN"
 "http://www.w3.org/TR/2001/REC-SVG-20010904/DTD/svg10.dtd">
<svg version="1.0" xmlns="http://www.w3.org/2000/svg"
 width="512.000000pt" height="512.000000pt" viewBox="0 0 512.000000 512.000000"
 preserveAspectRatio="xMidYMid meet">

<g transform="translate(0.000000,512.000000) scale(0.100000,-0.100000)"
fill="#000000" stroke="none">
<path d="M2315 5109 c-597 -61 -1141 -318 -1563 -739 -1002 -1000 -1002 -2620
0 -3620 406 -405 901 -648 1493 -732 119 -17 512 -16 635 1 579 80 1088 330
1490 733 404 405 648 902 732 1493 17 118 17 512 0 630 -85 593 -327 1088
-734 1495 -393 394 -891 643 -1453 726 -122 18 -477 26 -600 13z m575 -314
c897 -138 1632 -798 1854 -1666 55 -216 70 -336 70 -569 0 -302 -47 -559 -150
-820 -302 -760 -969 -1291 -1784 -1416 -140 -22 -471 -25 -605 -6 -359 51
-689 176 -974 370 -532 360 -878 909 -977 1552 -25 159 -25 481 0 640 99 643
445 1192 977 1552 322 219 661 337 1094 382 81 8 393 -4 495 -19z"/>
<path d="M2110 3315 l0 -905 -455 0 -455 0 0 -150 0 -150 455 0 455 0 0 -530
0 -530 150 0 150 0 0 530 0 530 450 0 450 0 0 150 0 150 -450 0 -450 0 0 150
0 150 600 0 600 0 0 150 0 150 -600 0 -600 0 0 455 0 455 600 0 600 0 0 150 0
150 -750 0 -750 0 0 -905z"/>
</g>
</svg>
